<?xml version="1.0"?><svg viewBox="0 0 24 24" xmlns="http://www.w3.org/2000/svg" xmlns:xlink="http://www.w3.org/1999/xlink"><style>:root>svg{display:none}:root>svg:target{display:block}</style><svg viewBox="0 0 50 50" id="facebook" xmlns="http://www.w3.org/2000/svg"><path d="M41 4H9C6.24 4 4 6.24 4 9v32c0 2.76 2.24 5 5 5h32c2.76 0 5-2.24 5-5V9c0-2.76-2.24-5-5-5zm-4 15h-2c-2.14 0-3 .5-3 2v3h5l-1 5h-4v15h-5V29h-4v-5h4v-3c0-4 2-7 6-7 2.9 0 4 1 4 1v4z"/></svg><svg viewBox="0 0 50 50" id="instagram" xmlns="http://www.w3.org/2000/svg"><path d="M12 3c-4.959 0-9 4.041-9 9v26c0 4.959 4.041 9 9 9h26c4.959 0 9-4.041 9-9V12c0-4.959-4.041-9-9-9H12zm0 2h26c3.877 0 7 3.123 7 7v26c0 3.877-3.123 7-7 7H12c-3.877 0-7-3.123-7-7V12c0-3.877 3.123-7 7-7zm26 2c-1.095 0-2 .905-2 2v3c0 1.095.905 2 2 2h3c1.095 0 2-.905 2-2V9c0-1.095-.905-2-2-2h-3zm0 2h3v3h-3V9zm-13 3c-3.668 0-6.984 1.54-9.352 4H8a1 1 0 00-1 1v20c0 3.302 2.698 6 6 6h24c3.302 0 6-2.698 6-6V17a1 1 0 00-1-1h-7.648c-2.368-2.46-5.684-4-9.352-4zm0 2c6.073 0 11 4.927 11 11s-4.927 11-11 11-11-4.927-11-11 4.927-11 11-11zm0 2a1 1 0 00-.41.084C19.832 16.311 16 20.186 16 25c0 4.96 4.042 9 9 9s9-4.04 9-9c0-4.813-3.83-8.687-8.586-8.916A1 1 0 0025 16zM9 18h5.068A12.9 12.9 0 0012 25c0 7.159 5.841 13 13 13s13-5.841 13-13a12.9 12.9 0 00-2.068-7H41v19c0 2.22-1.78 4-4 4H13c-2.22 0-4-1.78-4-4V18zm16 0c3.878 0 7 3.121 7 7s-3.122 7-7 7-7-3.121-7-7 3.122-7 7-7z"/></svg><svg viewBox="0 0 48 48" id="vk" xmlns="http://www.w3.org/2000/svg"><path d="M45.763 35.202c-1.797-3.234-6.426-7.12-8.337-8.811a1.242 1.242 0 01-.103-1.776c3.647-3.919 6.564-8.422 7.568-11.143.443-1.202-.474-2.472-1.766-2.472h-3.753c-1.237 0-1.961.444-2.306 1.151-3.031 6.211-5.631 8.899-7.451 10.47-1.019.88-2.608.151-2.608-1.188v-8.28a2.084 2.084 0 00-2.095-2.075L18.056 11c-.863 0-1.356.977-.838 1.662l1.132 1.625c.426.563.656 1.248.656 1.951L19 23.556c0 1.273-1.543 1.895-2.459 1.003-3.099-3.018-5.788-9.181-6.756-12.128A2.087 2.087 0 007.8 11l-3.697-.009c-1.387 0-2.401 1.315-2.024 2.639C5.457 25.487 12.388 36.767 24.74 37.99c1.217.12 2.267-.86 2.267-2.073v-3.846c0-1.103.865-2.051 1.977-2.079l.117-.001c3.267 0 6.926 4.755 8.206 6.979a2.07 2.07 0 001.8 1.03h4.973c1.451 0 2.382-1.539 1.683-2.798z"/></svg></svg>